# xmcd CD database file
#
# Track frame offsets:
#	150
#	17767
#	35392
#	56150
#	70215
#	86885
#	101402
#	120517
#	134267
#	147880
#	160312
#	177455
#	196377
#	212600
#	231472
#	242810
#	258857
#
# Disc length: 3617 seconds
#
# Revision: 0
# Processed by: cddbd v1.4PL0 Copyright (c) Steve Scherf et al.
# Submitted via: CDex 1.50Beta7
#
DISCID=f50e1f11
DTITLE=Nat King Cole - After Midnight
DYEAR=1900
DGENRE=Jazz
TTITLE0=You Can Depend On Me
TTITLE1=Candy
TTITLE2=Sweet Lorraine
TTITLE3=It's Only a Paper Moon
TTITLE4=(Get Your Kicks On) Route 66!
TTITLE5=Don't Let It Go To Your Head
TTITLE6=You're Lookin'  At Me
TTITLE7=Just You, Just Me
TTITLE8=I Was a Little Too Lonely And You were a Little Too Late
TTITLE9=Caravan
TTITLE10=Lonely One
TTITLE11=Blame It On My Youth
TTITLE12=What Is There To Say
TTITLE13=Sometimes I'm Happy
TTITLE14=I Know That You Know
TTITLE15=When I Grow Too Old To Dream
TTITLE16=Two Loves Have I
EXTD=
EXTT0=
EXTT1=
EXTT2=
EXTT3=
EXTT4=
EXTT5=
EXTT6=
EXTT7=
EXTT8=
EXTT9=
EXTT10=
EXTT11=
EXTT12=
EXTT13=
EXTT14=
EXTT15=
EXTT16=
PLAYORDER=
